<svg width="140" height="140" viewBox="0 0 140 140" fill="none" xmlns="http://www.w3.org/2000/svg">
<path d="M48.0089 61.4121H61.3939C58.0516 59.3212 56.8002 56.3908 55.1212 50.9576L50.0998 32.3454C47.803 23.9817 45.918 20.0059 36.7149 20.0059H17.4849V25.0272H20.2094C25.8485 25.0272 26.4821 27.1181 28.1612 33.3908L32.5489 49.7062C34.8457 57.658 38.4098 61.4121 48.0247 61.4121H48.0089ZM78.9765 61.4121H92.3456C101.961 61.4121 105.303 57.6422 107.616 49.7062L112.003 33.3908C113.682 27.1181 114.506 25.0272 119.955 25.0272H122.68V20.0059H103.655C94.2464 20.0059 92.3614 23.7758 90.2705 32.3454L85.2492 50.9576C83.5701 56.5967 82.3188 59.3212 78.9765 61.4121ZM61.3939 78.963H78.977L78.9765 61.4121H61.3939V78.963ZM17.4849 120.369H36.7149C45.918 120.369 47.803 116.393 50.0998 108.03L55.1212 89.4176C56.8002 83.9844 58.0516 81.054 61.3939 78.963H48.0089C38.3939 78.963 34.8299 82.733 32.533 90.6689L28.1453 106.984C26.4663 113.257 25.8485 115.348 20.1935 115.348H17.4849V120.369ZM103.624 120.369H122.648V115.348H119.923C114.49 115.348 113.651 113.257 111.972 106.984L107.584 90.6689C105.287 82.7172 101.945 78.963 92.3139 78.963H78.977C82.3193 81.054 83.5226 83.7785 85.2017 89.4176L90.223 108.03C92.3139 116.599 94.1989 120.369 103.608 120.369H103.624Z" fill="#7856FF"/>
</svg>
